<svg width="91" height="80" viewBox="0 0 91 80" fill="none" xmlns="http://www.w3.org/2000/svg">
<g opacity="0.1">
<path d="M43.3125 31.25H59.8125M51.5625 23V39.5M15.3038 12.275H78.0615C83.7457 12.275 87.8501 17.5137 86.2909 22.7855L79.4681 45.8855C78.4162 49.433 75.0585 51.875 71.2388 51.875H33.462C29.6381 51.875 26.2763 49.4289 25.2285 45.8855L15.3038 12.275ZM15.3038 12.275L12.375 2.375M68.0625 76.625C69.7035 76.625 71.2773 75.9731 72.4377 74.8127C73.5981 73.6523 74.25 72.0785 74.25 70.4375C74.25 68.7965 73.5981 67.2227 72.4377 66.0623C71.2773 64.9019 69.7035 64.25 68.0625 64.25C66.4215 64.25 64.8477 64.9019 63.6873 66.0623C62.5269 67.2227 61.875 68.7965 61.875 70.4375C61.875 72.0785 62.5269 73.6523 63.6873 74.8127C64.8477 75.9731 66.4215 76.625 68.0625 76.625ZM35.0625 76.625C36.7035 76.625 38.2773 75.9731 39.4377 74.8127C40.5981 73.6523 41.25 72.0785 41.25 70.4375C41.25 68.7965 40.5981 67.2227 39.4377 66.0623C38.2773 64.9019 36.7035 64.25 35.0625 64.25C33.4215 64.25 31.8477 64.9019 30.6873 66.0623C29.5269 67.2227 28.875 68.7965 28.875 70.4375C28.875 72.0785 29.5269 73.6523 30.6873 74.8127C31.8477 75.9731 33.4215 76.625 35.0625 76.625Z" stroke="black" stroke-width="6.1875" stroke-linecap="round" stroke-linejoin="round"/>
</g>
</svg>
