<svg width="18" height="18" viewBox="0 0 18 18" fill="none" xmlns="http://www.w3.org/2000/svg">
<path d="M7.875 7.5H10.875M9.375 6V9M2.7825 4.05H14.193C15.2265 4.05 15.9728 5.0025 15.6893 5.961L14.4487 10.161C14.2575 10.806 13.647 11.25 12.9525 11.25H6.084C5.38875 11.25 4.7775 10.8053 4.587 10.161L2.7825 4.05ZM2.7825 4.05L2.25 2.25M12.375 15.75C12.6734 15.75 12.9595 15.6315 13.1705 15.4205C13.3815 15.2095 13.5 14.9234 13.5 14.625C13.5 14.3266 13.3815 14.0405 13.1705 13.8295C12.9595 13.6185 12.6734 13.5 12.375 13.5C12.0766 13.5 11.7905 13.6185 11.5795 13.8295C11.3685 14.0405 11.25 14.3266 11.25 14.625C11.25 14.9234 11.3685 15.2095 11.5795 15.4205C11.7905 15.6315 12.0766 15.75 12.375 15.75ZM6.375 15.75C6.67337 15.75 6.95952 15.6315 7.1705 15.4205C7.38147 15.2095 7.5 14.9234 7.5 14.625C7.5 14.3266 7.38147 14.0405 7.1705 13.8295C6.95952 13.6185 6.67337 13.5 6.375 13.5C6.07663 13.5 5.79048 13.6185 5.5795 13.8295C5.36853 14.0405 5.25 14.3266 5.25 14.625C5.25 14.9234 5.36853 15.2095 5.5795 15.4205C5.79048 15.6315 6.07663 15.75 6.375 15.75Z" stroke="black" stroke-width="1.5" stroke-linecap="round" stroke-linejoin="round"/>
</svg>
