<svg width="18" height="18" viewBox="0 0 18 18" fill="none" xmlns="http://www.w3.org/2000/svg">
<path d="M1.76776 5.7855L7.00276 9.276C7.72501 9.75675 8.08576 9.9975 8.47576 10.0912C8.82076 10.1737 9.18001 10.1737 9.52426 10.0912C9.91426 9.9975 10.275 9.75675 10.9973 9.276L16.2323 5.7855M5.36776 14.625H12.6323C13.8923 14.625 14.5223 14.625 15.0038 14.3798C15.4268 14.1639 15.7707 13.8197 15.9863 13.3965C16.2323 12.915 16.2323 12.285 16.2323 11.025V6.975C16.2323 5.715 16.2323 5.085 15.987 4.6035C15.7713 4.18015 15.4271 3.83596 15.0038 3.62025C14.5223 3.375 13.8923 3.375 12.6323 3.375H5.36776C4.10776 3.375 3.47776 3.375 2.99626 3.62025C2.57319 3.83609 2.22928 4.18027 2.01376 4.6035C1.76776 5.085 1.76776 5.715 1.76776 6.975V11.025C1.76776 12.285 1.76776 12.915 2.01301 13.3965C2.22872 13.8198 2.57292 14.164 2.99626 14.3798C3.47776 14.625 4.10776 14.625 5.36776 14.625Z" stroke="#9BC64C" stroke-width="1.5" stroke-linecap="round" stroke-linejoin="round"/>
</svg>
