<svg width="18" height="18" viewBox="0 0 18 18" fill="none" xmlns="http://www.w3.org/2000/svg">
<path d="M5.625 8.625V10.875M4.5 9.75H6.75M9 2.8365V6.093M11.1555 9.75H13.4055M9 6.26025C10.5037 6.26025 11.775 4.84425 13.3395 5.35125C15.0375 5.901 16.2045 7.911 16.1205 12.4703C16.104 13.3883 15.8685 14.4038 14.961 14.7998C12.8632 15.7155 11.6632 13.0538 9.711 13.0538H8.28825C6.3345 13.0538 5.1285 15.7125 3.03975 14.7998C2.13225 14.4038 1.896 13.3883 1.8795 12.4695C1.79475 7.911 2.9625 5.901 4.6605 5.35125C6.22425 4.84425 7.4955 6.26025 9 6.26025Z" stroke="#9BC64C" stroke-width="1.5" stroke-linecap="round" stroke-linejoin="round"/>
</svg>
