<svg width="18" height="18" viewBox="0 0 18 18" fill="none" xmlns="http://www.w3.org/2000/svg">
<path d="M6 7.5V6C6 3.92925 6.92925 2.25 9 2.25C11.0707 2.25 12 3.92925 12 6V7.5M2.625 13.35V9.9C2.625 9.06 2.625 8.64 2.7885 8.31975C2.93218 8.03724 3.16166 7.8075 3.444 7.6635C3.765 7.50075 4.185 7.50075 5.025 7.50075H12.975C13.815 7.50075 14.235 7.50075 14.556 7.6635C14.8382 7.80731 15.0677 8.03677 15.2115 8.319C15.375 8.64 15.375 9.06 15.375 9.9V13.35C15.375 14.19 15.375 14.61 15.2115 14.931C15.0677 15.2132 14.8382 15.4427 14.556 15.5865C14.235 15.75 13.815 15.75 12.975 15.75H5.025C4.185 15.75 3.765 15.75 3.444 15.5865C3.16177 15.4427 2.93231 15.2132 2.7885 14.931C2.625 14.6108 2.625 14.1907 2.625 13.35Z" stroke="#9BC64C" stroke-width="1.5" stroke-linecap="round" stroke-linejoin="round"/>
</svg>
