<svg width="18" height="18" viewBox="0 0 18 18" fill="none" xmlns="http://www.w3.org/2000/svg">
<path d="M12.7501 14.6124C11.6401 15.3541 10.335 15.75 9 15.75C7.9573 15.7505 6.92866 15.5095 5.99475 15.0458C5.3115 14.7053 4.38975 15.1777 3.717 15.3577C3.56821 15.3976 3.41154 15.3976 3.26275 15.3578C3.11395 15.3179 2.97827 15.2396 2.86935 15.1307C2.76043 15.0217 2.68209 14.886 2.64223 14.7373C2.60237 14.5885 2.60237 14.4318 2.64225 14.283C2.82225 13.6103 3.29475 12.6885 2.955 12.0052C2.5035 11.1 2.25 10.08 2.25 9C2.25 7.66498 2.64588 6.35993 3.38758 5.2499C4.12928 4.13987 5.18349 3.2747 6.41689 2.76381C7.65029 2.25292 9.00749 2.11925 10.3169 2.3797C11.6262 2.64015 12.829 3.28302 13.773 4.22703C14.717 5.17103 15.3599 6.37377 15.6203 7.68314C15.8808 8.99251 15.7471 10.3497 15.2362 11.5831C14.7253 12.8165 13.8601 13.8707 12.7501 14.6124Z" stroke="#9BC64C" stroke-width="1.5" stroke-linecap="round" stroke-linejoin="round"/>
</svg>
