<svg width="32" height="32" viewBox="0 0 32 32" fill="none" xmlns="http://www.w3.org/2000/svg">
<path d="M7.94152 2.0129C5.14298 2.51326 2.89134 4.58453 2.18152 7.30744C1.92552 8.29072 1.90807 8.86672 1.93716 16.4944C1.95461 23.4994 1.96043 23.6624 2.0768 24.2034C2.72261 27.1184 4.79389 29.1954 7.73789 29.882C8.12189 29.9693 8.61061 29.9867 11.7582 30.0042C15.0164 30.0274 15.3539 30.0216 15.4412 29.9344C15.5284 29.8471 15.5342 28.7242 15.5342 15.994C15.5342 6.5569 15.5168 2.11181 15.4761 2.03035C15.4179 1.92562 15.319 1.91981 11.9095 1.92562C9.14007 1.93144 8.30807 1.9489 7.94152 2.0129ZM13.207 15.9765V27.7642L10.839 27.7351C8.65716 27.7118 8.42443 27.7002 7.98807 27.5896C6.11461 27.1067 4.72407 25.6638 4.33425 23.7845C4.20625 23.1969 4.20625 8.72126 4.32843 8.14526C4.67752 6.51035 5.81207 5.15471 7.34225 4.54381C8.11025 4.23544 8.46516 4.20053 10.9553 4.19471L13.207 4.1889V15.9765Z" fill="black"/>
<path d="M8.44203 7.74394C8.07548 7.81376 7.51694 8.09303 7.22021 8.35485C6.6093 8.88431 6.30675 9.63485 6.3533 10.5192C6.37657 10.9789 6.40566 11.101 6.59184 11.4734C6.8653 12.0378 7.27839 12.4509 7.84275 12.7301C8.23257 12.9221 8.33148 12.9454 8.83766 12.9629C9.2973 12.9803 9.46021 12.9629 9.76857 12.8581C11.0311 12.4334 11.7933 11.2058 11.578 9.94903C11.3278 8.45376 9.90821 7.45303 8.44203 7.74394Z" fill="black"/>
<path d="M18.3679 1.96062C18.3446 1.97808 18.3271 8.28499 18.3271 15.9766C18.3271 28.6661 18.333 29.9519 18.4202 29.9868C18.5773 30.045 23.0922 30.0217 23.6508 29.9635C26.013 29.6959 28.0959 28.2588 29.2304 26.1235C29.3759 25.8501 29.5679 25.3904 29.6668 25.1054C30.0333 24.0115 30.0217 24.3024 30.0217 15.9417C30.0217 9.26826 30.0101 8.27335 29.9286 7.84862C29.3526 4.81735 27.0428 2.5308 24.0057 2.00717C23.5984 1.93735 22.9701 1.9199 20.9453 1.9199C19.549 1.9199 18.3853 1.93735 18.3679 1.96062ZM24.5817 14.6326C25.4893 14.8712 26.2341 15.5635 26.5366 16.4479C26.7286 16.9948 26.7228 17.7977 26.5308 18.2981C26.1759 19.2174 25.4777 19.8632 24.5817 20.1017C23.1271 20.4799 21.5795 19.6014 21.1548 18.1584C21.0268 17.7163 21.0326 16.9715 21.1781 16.5177C21.6144 15.0923 23.1271 14.2544 24.5817 14.6326Z" fill="black"/>
</svg>
