<svg width="20" height="21" viewBox="0 0 20 21" fill="none" xmlns="http://www.w3.org/2000/svg">
<path d="M4.99561 1.83679L2.49561 5.17013V16.8368C2.49561 17.2788 2.6712 17.7027 2.98376 18.0153C3.29632 18.3279 3.72024 18.5035 4.16227 18.5035H15.8289C16.271 18.5035 16.6949 18.3279 17.0074 18.0153C17.32 17.7027 17.4956 17.2788 17.4956 16.8368V5.17013L14.9956 1.83679H4.99561Z" stroke="white" stroke-width="1.5" stroke-linecap="round" stroke-linejoin="round"/>
<path d="M2.49561 5.17017H17.4956" stroke="white" stroke-width="1.5" stroke-linecap="round" stroke-linejoin="round"/>
<path d="M13.329 8.50354C13.329 9.3876 12.9778 10.2354 12.3527 10.8606C11.7276 11.4857 10.8797 11.8369 9.99569 11.8369C9.11163 11.8369 8.26379 11.4857 7.63866 10.8606C7.01354 10.2354 6.66235 9.3876 6.66235 8.50354" stroke="white" stroke-width="1.5" stroke-linecap="round" stroke-linejoin="round"/>
</svg>
