<svg width="32" height="32" viewBox="0 0 32 32" fill="none" xmlns="http://www.w3.org/2000/svg">
<mask id="mask0_5544_20503" style="mask-type:alpha" maskUnits="userSpaceOnUse" x="0" y="0" width="32" height="32">
<rect width="32" height="32" fill="#D9D9D9"/>
</mask>
<g mask="url(#mask0_5544_20503)">
<path d="M20.0003 5.33332H12.0003V14.6667H20.0003V5.33332ZM26.667 5.33332H22.667V14.6667H26.667V5.33332ZM19.167 17.3333H10.667V25.3333H18.067C18.5337 25.3333 18.9837 25.2555 19.417 25.1C19.8503 24.9444 20.2448 24.7111 20.6003 24.4L26.1337 19.8333C25.9559 19.6555 25.7559 19.5222 25.5337 19.4333C25.3114 19.3444 25.0781 19.2778 24.8337 19.2333C24.4559 19.1667 24.0892 19.1778 23.7337 19.2667C23.3781 19.3555 23.0448 19.5222 22.7337 19.7667L19.1337 22.6667H13.3337V20H18.2003L19.667 18.8C19.7781 18.7333 19.8614 18.6444 19.917 18.5333C19.9725 18.4222 20.0003 18.3 20.0003 18.1667C20.0003 17.9444 19.917 17.75 19.7503 17.5833C19.5837 17.4167 19.3892 17.3333 19.167 17.3333ZM8.00033 17.3333H5.33366V26.6667H8.00033V17.3333ZM9.33366 17.3333V5.33332C9.33366 4.59999 9.59477 3.97221 10.117 3.44999C10.6392 2.92777 11.267 2.66666 12.0003 2.66666H26.667C27.4003 2.66666 28.0281 2.92777 28.5503 3.44999C29.0725 3.97221 29.3337 4.59999 29.3337 5.33332V14.6667C29.3337 15.4 29.0725 16.0278 28.5503 16.55C28.0281 17.0722 27.4003 17.3333 26.667 17.3333H9.33366ZM8.00033 29.3333H5.33366C4.60033 29.3333 3.97255 29.0722 3.45033 28.55C2.9281 28.0278 2.66699 27.4 2.66699 26.6667V17.3333C2.66699 16.6 2.9281 15.9722 3.45033 15.45C3.97255 14.9278 4.60033 14.6667 5.33366 14.6667H19.167C21.0559 14.6667 22.8781 14.9889 24.6337 15.6333C26.3892 16.2778 27.8003 17.3667 28.867 18.9L29.767 20.2667L22.3337 26.4667C21.7337 26.9778 21.067 27.3611 20.3337 27.6167C19.6003 27.8722 18.8448 28 18.067 28H10.3003C10.0559 28.4 9.73366 28.7222 9.33366 28.9667C8.93366 29.2111 8.48921 29.3333 8.00033 29.3333Z" fill="white"/>
</g>
</svg>
