<svg width="11" height="9" viewBox="0 0 11 9" fill="none" xmlns="http://www.w3.org/2000/svg">
<path d="M9.96875 0C10.5273 0 11 0.472656 11 1.03125V7.21875C11 7.79883 10.5273 8.25 9.96875 8.25H1.03125C0.451172 8.25 0 7.79883 0 7.21875V1.03125C0 0.472656 0.451172 0 1.03125 0H9.96875ZM9.96875 1.03125H1.03125V1.91211C1.50391 2.32031 2.27734 2.92188 3.91016 4.21094C4.27539 4.49023 4.98438 5.17773 5.5 5.15625C5.99414 5.17773 6.70312 4.49023 7.06836 4.21094C8.70117 2.92188 9.47461 2.32031 9.96875 1.91211V1.03125ZM1.03125 7.21875H9.96875V3.24414C9.47461 3.63086 8.76562 4.18945 7.71289 5.02734C7.21875 5.39258 6.40234 6.20898 5.5 6.1875C4.57617 6.20898 3.73828 5.39258 3.26562 5.02734C2.21289 4.18945 1.50391 3.63086 1.03125 3.24414V7.21875Z" fill="#E9222A"/>
</svg>
