<svg width="24" height="24" viewBox="0 0 24 24" fill="none" xmlns="http://www.w3.org/2000/svg">
<path d="M18.5859 5.70703C20.3086 7.42969 21.375 9.68555 21.375 12.1465C21.375 17.1504 17.1914 21.252 12.1465 21.252C10.6289 21.252 9.15234 20.8418 7.79883 20.1445L3 21.375L4.27148 16.6582C3.49219 15.3047 3.04102 13.7461 3.04102 12.1055C3.04102 7.10156 7.14258 3 12.1465 3C14.6074 3 16.9043 3.98438 18.5859 5.70703ZM12.1465 19.6934C16.3301 19.6934 19.8164 16.2891 19.8164 12.1465C19.8164 10.0957 18.9551 8.20898 17.5195 6.77344C16.084 5.33789 14.1973 4.55859 12.1875 4.55859C8.00391 4.55859 4.59961 7.96289 4.59961 12.1055C4.59961 13.541 5.00977 14.9355 5.74805 16.166L5.95312 16.4531L5.17383 19.2422L8.04492 18.4629L8.29102 18.627C9.48047 19.3242 10.793 19.6934 12.1465 19.6934ZM16.3301 14.0332C16.5352 14.1562 16.6992 14.1973 16.7402 14.3203C16.8223 14.4023 16.8223 14.8535 16.6172 15.3867C16.4121 15.9199 15.5098 16.4121 15.0996 16.4531C14.3613 16.5762 13.7871 16.5352 12.3516 15.8789C10.0547 14.8945 8.57812 12.5977 8.45508 12.4746C8.33203 12.3105 7.55273 11.2441 7.55273 10.0957C7.55273 8.98828 8.12695 8.45508 8.33203 8.20898C8.53711 7.96289 8.7832 7.92188 8.94727 7.92188C9.07031 7.92188 9.23438 7.92188 9.35742 7.92188C9.52148 7.92188 9.68555 7.88086 9.89062 8.33203C10.0547 8.7832 10.5469 9.89062 10.5879 10.0137C10.6289 10.1367 10.6699 10.2598 10.5879 10.4238C10.1777 11.2852 9.68555 11.2441 9.93164 11.6543C10.834 13.1719 11.6953 13.7051 13.0488 14.3613C13.2539 14.4844 13.377 14.4434 13.541 14.3203C13.6641 14.1562 14.1152 13.623 14.2383 13.418C14.4023 13.1719 14.5664 13.2129 14.7715 13.2949C14.9766 13.377 16.084 13.9102 16.3301 14.0332Z" fill="white"/>
</svg>
