<svg width="32" height="32" viewBox="0 0 32 32" fill="none" xmlns="http://www.w3.org/2000/svg">
<mask id="mask0_5511_21545" style="mask-type:alpha" maskUnits="userSpaceOnUse" x="0" y="0" width="32" height="32">
<rect width="32" height="32" fill="#D9D9D9"/>
</mask>
<g mask="url(#mask0_5511_21545)">
<path d="M19.9998 5.33335H11.9998V14.6667H19.9998V5.33335ZM26.6665 5.33335H22.6665V14.6667H26.6665V5.33335ZM19.1665 17.3334H10.6665V25.3334H18.0665C18.5332 25.3334 18.9832 25.2556 19.4165 25.1C19.8498 24.9445 20.2443 24.7111 20.5998 24.4L26.1332 19.8334C25.9554 19.6556 25.7554 19.5222 25.5332 19.4334C25.3109 19.3445 25.0776 19.2778 24.8332 19.2334C24.4554 19.1667 24.0887 19.1778 23.7332 19.2667C23.3776 19.3556 23.0443 19.5222 22.7332 19.7667L19.1332 22.6667H13.3332V20H18.1998L19.6665 18.8C19.7776 18.7334 19.8609 18.6445 19.9165 18.5334C19.9721 18.4222 19.9998 18.3 19.9998 18.1667C19.9998 17.9445 19.9165 17.75 19.7498 17.5834C19.5832 17.4167 19.3887 17.3334 19.1665 17.3334ZM7.99984 17.3334H5.33317V26.6667H7.99984V17.3334ZM9.33317 17.3334V5.33335C9.33317 4.60002 9.59428 3.97224 10.1165 3.45002C10.6387 2.9278 11.2665 2.66669 11.9998 2.66669H26.6665C27.3998 2.66669 28.0276 2.9278 28.5498 3.45002C29.0721 3.97224 29.3332 4.60002 29.3332 5.33335V14.6667C29.3332 15.4 29.0721 16.0278 28.5498 16.55C28.0276 17.0722 27.3998 17.3334 26.6665 17.3334H9.33317ZM7.99984 29.3334H5.33317C4.59984 29.3334 3.97206 29.0722 3.44984 28.55C2.92762 28.0278 2.6665 27.4 2.6665 26.6667V17.3334C2.6665 16.6 2.92762 15.9722 3.44984 15.45C3.97206 14.9278 4.59984 14.6667 5.33317 14.6667H19.1665C21.0554 14.6667 22.8776 14.9889 24.6332 15.6334C26.3887 16.2778 27.7998 17.3667 28.8665 18.9L29.7665 20.2667L22.3332 26.4667C21.7332 26.9778 21.0665 27.3611 20.3332 27.6167C19.5998 27.8722 18.8443 28 18.0665 28H10.2998C10.0554 28.4 9.73317 28.7222 9.33317 28.9667C8.93317 29.2111 8.48873 29.3334 7.99984 29.3334Z" fill="#E9222A"/>
</g>
</svg>
