<svg width="32" height="32" viewBox="0 0 32 32" fill="none" xmlns="http://www.w3.org/2000/svg">
<rect width="32" height="32" rx="4" fill="#33373C"/>
<g opacity="0.5">
<path d="M21.8327 23.5V21.8333C21.8327 20.9493 21.4815 20.1014 20.8564 19.4763C20.2312 18.8512 19.3834 18.5 18.4993 18.5H13.4993C12.6153 18.5 11.7674 18.8512 11.1423 19.4763C10.5172 20.1014 10.166 20.9493 10.166 21.8333V23.5M19.3327 11.8333C19.3327 13.6743 17.8403 15.1667 15.9993 15.1667C14.1584 15.1667 12.666 13.6743 12.666 11.8333C12.666 9.99238 14.1584 8.5 15.9993 8.5C17.8403 8.5 19.3327 9.99238 19.3327 11.8333Z" stroke="white" stroke-width="1.5" stroke-linecap="round" stroke-linejoin="round"/>
</g>
</svg>
