<svg width="16" height="17" viewBox="0 0 16 17" fill="none" xmlns="http://www.w3.org/2000/svg">
<path d="M7.89258 4.43945C10.1074 4.43945 11.9355 6.26758 11.9355 8.48242C11.9355 10.7324 10.1074 12.5254 7.89258 12.5254C5.64258 12.5254 3.84961 10.7324 3.84961 8.48242C3.84961 6.26758 5.64258 4.43945 7.89258 4.43945ZM7.89258 11.1191C9.33398 11.1191 10.4941 9.95898 10.4941 8.48242C10.4941 7.04102 9.33398 5.88086 7.89258 5.88086C6.41602 5.88086 5.25586 7.04102 5.25586 8.48242C5.25586 9.95898 6.45117 11.1191 7.89258 11.1191ZM13.0254 4.29883C13.0254 4.82617 12.6035 5.24805 12.0762 5.24805C11.5488 5.24805 11.127 4.82617 11.127 4.29883C11.127 3.77148 11.5488 3.34961 12.0762 3.34961C12.6035 3.34961 13.0254 3.77148 13.0254 4.29883ZM15.6973 5.24805C15.7676 6.54883 15.7676 10.4512 15.6973 11.752C15.627 13.0176 15.3457 14.1074 14.4316 15.0566C13.5176 15.9707 12.3926 16.252 11.127 16.3223C9.82617 16.3926 5.92383 16.3926 4.62305 16.3223C3.35742 16.252 2.26758 15.9707 1.31836 15.0566C0.404297 14.1074 0.123047 13.0176 0.0527344 11.752C-0.0175781 10.4512 -0.0175781 6.54883 0.0527344 5.24805C0.123047 3.98242 0.404297 2.85742 1.31836 1.94336C2.26758 1.0293 3.35742 0.748047 4.62305 0.677734C5.92383 0.607422 9.82617 0.607422 11.127 0.677734C12.3926 0.748047 13.5176 1.0293 14.4316 1.94336C15.3457 2.85742 15.627 3.98242 15.6973 5.24805ZM14.0098 13.123C14.4316 12.1035 14.3262 9.64258 14.3262 8.48242C14.3262 7.35742 14.4316 4.89648 14.0098 3.8418C13.7285 3.17383 13.2012 2.61133 12.5332 2.36523C11.4785 1.94336 9.01758 2.04883 7.89258 2.04883C6.73242 2.04883 4.27148 1.94336 3.25195 2.36523C2.54883 2.64648 2.02148 3.17383 1.74023 3.8418C1.31836 4.89648 1.42383 7.35742 1.42383 8.48242C1.42383 9.64258 1.31836 12.1035 1.74023 13.123C2.02148 13.8262 2.54883 14.3535 3.25195 14.6348C4.27148 15.0566 6.73242 14.9512 7.89258 14.9512C9.01758 14.9512 11.4785 15.0566 12.5332 14.6348C13.2012 14.3535 13.7637 13.8262 14.0098 13.123Z" fill="white"/>
</svg>
