<svg width="18" height="19" viewBox="0 0 18 19" fill="none" xmlns="http://www.w3.org/2000/svg">
<g opacity="0.5" clip-path="url(#clip0_4881_14)">
<path d="M11.6206 5.79517L13.3456 7.52017C13.4858 7.65759 13.6743 7.73456 13.8706 7.73456C14.0669 7.73456 14.2554 7.65759 14.3956 7.52017L15.9706 5.94517C16.108 5.80497 16.185 5.61648 16.185 5.42017C16.185 5.22385 16.108 5.03536 15.9706 4.89517L14.2456 3.17017" stroke="white" stroke-width="2" stroke-linecap="round" stroke-linejoin="round"/>
<path d="M15.7454 1.67017L8.54541 8.87017" stroke="white" stroke-width="2" stroke-linecap="round" stroke-linejoin="round"/>
<path d="M5.62061 15.9202C7.89878 15.9202 9.74561 14.0733 9.74561 11.7952C9.74561 9.51699 7.89878 7.67017 5.62061 7.67017C3.34243 7.67017 1.49561 9.51699 1.49561 11.7952C1.49561 14.0733 3.34243 15.9202 5.62061 15.9202Z" stroke="white" stroke-width="2" stroke-linecap="round" stroke-linejoin="round"/>
</g>
<defs>
<clipPath id="clip0_4881_14">
<rect width="18" height="18" fill="white" transform="translate(-0.00439453 0.170166)"/>
</clipPath>
</defs>
</svg>
