<svg width="18" height="19" viewBox="0 0 18 19" fill="none" xmlns="http://www.w3.org/2000/svg">
<g opacity="0.5" clip-path="url(#clip0_4881_20)">
<path d="M14.2456 8.42017H3.74561C2.91718 8.42017 2.24561 9.09174 2.24561 9.92017V15.1702C2.24561 15.9986 2.91718 16.6702 3.74561 16.6702H14.2456C15.074 16.6702 15.7456 15.9986 15.7456 15.1702V9.92017C15.7456 9.09174 15.074 8.42017 14.2456 8.42017Z" stroke="white" stroke-width="2" stroke-linecap="round" stroke-linejoin="round"/>
<path d="M5.24561 8.42017V5.42017C5.24561 4.4256 5.64069 3.47178 6.34396 2.76852C7.04722 2.06525 8.00104 1.67017 8.99561 1.67017C9.99017 1.67017 10.944 2.06525 11.6473 2.76852C12.3505 3.47178 12.7456 4.4256 12.7456 5.42017V8.42017" stroke="white" stroke-width="2" stroke-linecap="round" stroke-linejoin="round"/>
</g>
<defs>
<clipPath id="clip0_4881_20">
<rect width="18" height="18" fill="white" transform="translate(-0.00439453 0.170166)"/>
</clipPath>
</defs>
</svg>
