<svg width="32" height="32" viewBox="0 0 32 32" fill="none" xmlns="http://www.w3.org/2000/svg">
<mask id="mask0_5510_21536" style="mask-type:alpha" maskUnits="userSpaceOnUse" x="0" y="0" width="32" height="32">
<rect width="32" height="32" fill="#D9D9D9"/>
</mask>
<g mask="url(#mask0_5510_21536)">
<path d="M14.6667 25.9V16.7667L6.66667 12.1334V21.2667L14.6667 25.9ZM17.3333 25.9L25.3333 21.2667V12.1334L17.3333 16.7667V25.9ZM14.6667 28.9667L5.33333 23.6C4.91111 23.3556 4.58333 23.0334 4.35 22.6334C4.11667 22.2334 4 21.7889 4 21.3V10.7C4 10.2111 4.11667 9.76669 4.35 9.36669C4.58333 8.96669 4.91111 8.64446 5.33333 8.40002L14.6667 3.03335C15.0889 2.78891 15.5333 2.66669 16 2.66669C16.4667 2.66669 16.9111 2.78891 17.3333 3.03335L26.6667 8.40002C27.0889 8.64446 27.4167 8.96669 27.65 9.36669C27.8833 9.76669 28 10.2111 28 10.7V21.3C28 21.7889 27.8833 22.2334 27.65 22.6334C27.4167 23.0334 27.0889 23.3556 26.6667 23.6L17.3333 28.9667C16.9111 29.2111 16.4667 29.3334 16 29.3334C15.5333 29.3334 15.0889 29.2111 14.6667 28.9667ZM21.3333 11.3667L23.9 9.90002L16 5.33335L13.4 6.83335L21.3333 11.3667ZM16 14.4667L18.6 12.9667L10.7 8.40002L8.1 9.90002L16 14.4667Z" fill="#E9222A"/>
</g>
</svg>
