<svg width="32" height="32" viewBox="0 0 32 32" fill="none" xmlns="http://www.w3.org/2000/svg">
<mask id="mask0_5531_19596" style="mask-type:alpha" maskUnits="userSpaceOnUse" x="0" y="0" width="32" height="32">
<rect width="32" height="32" fill="#D9D9D9"/>
</mask>
<g mask="url(#mask0_5531_19596)">
<path d="M21.3337 10.6667V6.66667H10.667V10.6667H8.00033V4H24.0003V10.6667H21.3337ZM24.0003 16.6667C24.3781 16.6667 24.6948 16.5389 24.9503 16.2833C25.2059 16.0278 25.3337 15.7111 25.3337 15.3333C25.3337 14.9556 25.2059 14.6389 24.9503 14.3833C24.6948 14.1278 24.3781 14 24.0003 14C23.6225 14 23.3059 14.1278 23.0503 14.3833C22.7948 14.6389 22.667 14.9556 22.667 15.3333C22.667 15.7111 22.7948 16.0278 23.0503 16.2833C23.3059 16.5389 23.6225 16.6667 24.0003 16.6667ZM21.3337 25.3333V20H10.667V25.3333H21.3337ZM24.0003 28H8.00033V22.6667H2.66699V14.6667C2.66699 13.5333 3.05588 12.5833 3.83366 11.8167C4.61144 11.05 5.55588 10.6667 6.66699 10.6667H25.3337C26.467 10.6667 27.417 11.05 28.1837 11.8167C28.9503 12.5833 29.3337 13.5333 29.3337 14.6667V22.6667H24.0003V28ZM26.667 20V14.6667C26.667 14.2889 26.5392 13.9722 26.2837 13.7167C26.0281 13.4611 25.7114 13.3333 25.3337 13.3333H6.66699C6.28921 13.3333 5.97255 13.4611 5.71699 13.7167C5.46144 13.9722 5.33366 14.2889 5.33366 14.6667V20H8.00033V17.3333H24.0003V20H26.667Z" fill="white"/>
</g>
</svg>
