<svg width="40" height="41" viewBox="0 0 40 41" fill="none" xmlns="http://www.w3.org/2000/svg">
<path d="M36.6622 22.3368V10.6701C36.6622 9.78607 36.311 8.93822 35.6859 8.3131C35.0608 7.68798 34.2129 7.33679 33.3289 7.33679H6.66219C5.77814 7.33679 4.93029 7.68798 4.30517 8.3131C3.68005 8.93822 3.32886 9.78607 3.32886 10.6701V30.6701C3.32886 32.5035 4.82886 34.0035 6.66219 34.0035H19.9955" stroke="white" stroke-width="2" stroke-linecap="round" stroke-linejoin="round"/>
<path d="M36.6622 12.3368L21.7122 21.8368C21.1976 22.1592 20.6027 22.3301 19.9955 22.3301C19.3883 22.3301 18.7934 22.1592 18.2789 21.8368L3.32886 12.3368" stroke="white" stroke-width="2" stroke-linecap="round" stroke-linejoin="round"/>
<path d="M26.6624 32.3369L29.9957 35.6702L36.6624 29.0035" stroke="white" stroke-width="2" stroke-linecap="round" stroke-linejoin="round"/>
</svg>
