<svg width="40" height="41" viewBox="0 0 40 41" fill="none" xmlns="http://www.w3.org/2000/svg">
<path d="M24.2224 36.8136C24.2857 36.9714 24.3958 37.106 24.5378 37.1995C24.6799 37.2929 24.8471 37.3406 25.0171 37.3363C25.1871 37.3319 25.3516 37.2757 25.4887 37.1751C25.6258 37.0745 25.7289 36.9344 25.784 36.7736L36.6174 5.10689C36.6707 4.95921 36.6809 4.79939 36.6467 4.64614C36.6125 4.49289 36.5354 4.35254 36.4244 4.24151C36.3134 4.13049 36.173 4.05338 36.0198 4.01921C35.8665 3.98503 35.7067 3.99521 35.559 4.04855L3.89235 14.8819C3.73152 14.937 3.5914 15.0401 3.49081 15.1772C3.39022 15.3143 3.33397 15.4788 3.32962 15.6488C3.32527 15.8188 3.37301 15.986 3.46645 16.1281C3.55989 16.2702 3.69455 16.3802 3.85235 16.4436L17.069 21.7436C17.4868 21.9108 17.8664 22.161 18.185 22.4789C18.5035 22.7969 18.7543 23.176 18.9224 23.5936L24.2224 36.8136Z" stroke="white" stroke-width="2" stroke-linecap="round" stroke-linejoin="round"/>
<path d="M36.4189 4.24854L18.1855 22.4802" stroke="white" stroke-width="2" stroke-linecap="round" stroke-linejoin="round"/>
</svg>
