<svg width="40" height="41" viewBox="0 0 40 41" fill="none" xmlns="http://www.w3.org/2000/svg">
<path d="M19.2039 4.49515C19.277 4.34759 19.3898 4.22337 19.5297 4.13653C19.6696 4.04968 19.8309 4.00366 19.9956 4.00366C20.1602 4.00366 20.3216 4.04968 20.4615 4.13653C20.6014 4.22337 20.7142 4.34759 20.7873 4.49515L24.6373 12.2935C24.8909 12.8068 25.2653 13.2508 25.7283 13.5876C26.1913 13.9243 26.7291 14.1437 27.2956 14.2268L35.9056 15.4868C36.0687 15.5105 36.222 15.5793 36.3481 15.6855C36.4741 15.7917 36.568 15.9311 36.619 16.0878C36.6699 16.2446 36.676 16.4125 36.6366 16.5725C36.5971 16.7326 36.5136 16.8784 36.3956 16.9935L30.1689 23.0568C29.7583 23.457 29.451 23.951 29.2737 24.4962C29.0963 25.0414 29.054 25.6216 29.1506 26.1868L30.6206 34.7535C30.6494 34.9165 30.6318 35.0844 30.5698 35.238C30.5077 35.3915 30.4038 35.5245 30.2698 35.6218C30.1359 35.7191 29.9772 35.7768 29.812 35.7883C29.6469 35.7998 29.4818 35.7646 29.3356 35.6868L21.6389 31.6402C21.1318 31.3739 20.5676 31.2347 19.9948 31.2347C19.422 31.2347 18.8577 31.3739 18.3506 31.6402L10.6556 35.6868C10.5095 35.7642 10.3446 35.799 10.1797 35.7872C10.0148 35.7755 9.85646 35.7178 9.72275 35.6205C9.58905 35.5233 9.48532 35.3905 9.42335 35.2372C9.36139 35.0839 9.34369 34.9163 9.37226 34.7535L10.8406 26.1885C10.9376 25.623 10.8956 25.0425 10.7182 24.4969C10.5407 23.9513 10.2333 23.4571 9.82226 23.0568L3.59559 16.9952C3.47658 16.8802 3.39225 16.7341 3.3522 16.5736C3.31215 16.4131 3.31799 16.2445 3.36906 16.0871C3.42013 15.9298 3.51437 15.7899 3.64106 15.6835C3.76774 15.577 3.92177 15.5083 4.08559 15.4852L12.6939 14.2268C13.261 14.1443 13.7996 13.9252 14.2632 13.5885C14.7269 13.2517 15.1018 12.8073 15.3556 12.2935L19.2039 4.49515Z" stroke="white" stroke-width="2" stroke-linecap="round" stroke-linejoin="round"/>
</svg>
