<svg width="16" height="16" viewBox="0 0 16 16" fill="none" xmlns="http://www.w3.org/2000/svg">
<path d="M13.3594 2.32031C14.8359 3.79688 15.75 5.73047 15.75 7.83984C15.75 12.1289 12.1641 15.6445 7.83984 15.6445C6.53906 15.6445 5.27344 15.293 4.11328 14.6953L0 15.75L1.08984 11.707C0.421875 10.5469 0.0351562 9.21094 0.0351562 7.80469C0.0351562 3.51562 3.55078 0 7.83984 0C9.94922 0 11.918 0.84375 13.3594 2.32031ZM7.83984 14.3086C11.4258 14.3086 14.4141 11.3906 14.4141 7.83984C14.4141 6.08203 13.6758 4.46484 12.4453 3.23438C11.2148 2.00391 9.59766 1.33594 7.875 1.33594C4.28906 1.33594 1.37109 4.25391 1.37109 7.80469C1.37109 9.03516 1.72266 10.2305 2.35547 11.2852L2.53125 11.5312L1.86328 13.9219L4.32422 13.2539L4.53516 13.3945C5.55469 13.9922 6.67969 14.3086 7.83984 14.3086ZM11.4258 9.45703C11.6016 9.5625 11.7422 9.59766 11.7773 9.70312C11.8477 9.77344 11.8477 10.1602 11.6719 10.6172C11.4961 11.0742 10.7227 11.4961 10.3711 11.5312C9.73828 11.6367 9.24609 11.6016 8.01562 11.0391C6.04688 10.1953 4.78125 8.22656 4.67578 8.12109C4.57031 7.98047 3.90234 7.06641 3.90234 6.08203C3.90234 5.13281 4.39453 4.67578 4.57031 4.46484C4.74609 4.25391 4.95703 4.21875 5.09766 4.21875C5.20312 4.21875 5.34375 4.21875 5.44922 4.21875C5.58984 4.21875 5.73047 4.18359 5.90625 4.57031C6.04688 4.95703 6.46875 5.90625 6.50391 6.01172C6.53906 6.11719 6.57422 6.22266 6.50391 6.36328C6.15234 7.10156 5.73047 7.06641 5.94141 7.41797C6.71484 8.71875 7.45312 9.17578 8.61328 9.73828C8.78906 9.84375 8.89453 9.80859 9.03516 9.70312C9.14062 9.5625 9.52734 9.10547 9.63281 8.92969C9.77344 8.71875 9.91406 8.75391 10.0898 8.82422C10.2656 8.89453 11.2148 9.35156 11.4258 9.45703Z" fill="white"/>
</svg>
