<svg width="26" height="32" viewBox="0 0 26 32" fill="none" xmlns="http://www.w3.org/2000/svg">
<g clip-path="url(#clip0_5276_10033)">
<path d="M25.1727 10.9088C24.9875 11.0528 21.7167 12.8992 21.7167 17.0048C21.7167 21.7536 25.8786 23.4336 26.0032 23.4752C25.984 23.5776 25.342 25.776 23.8088 28.016C22.4418 29.9872 21.014 31.9552 18.842 31.9552C16.67 31.9552 16.1111 30.6912 13.6037 30.6912C11.1602 30.6912 10.2914 31.9968 8.30467 31.9968C6.31794 31.9968 4.9317 30.1728 3.33784 27.9328C1.49165 25.3024 0 21.216 0 17.3376C0 11.1168 4.03735 7.8176 8.01081 7.8176C10.1221 7.8176 11.8821 9.2064 13.2076 9.2064C14.4693 9.2064 16.4369 7.7344 18.8388 7.7344C19.7491 7.7344 23.0199 7.8176 25.1727 10.9088ZM17.6985 5.1008C18.6919 3.92 19.3946 2.2816 19.3946 0.6432C19.3946 0.416 19.3754 0.1856 19.3339 0C17.7177 0.0608 15.7948 1.0784 14.6354 2.4256C13.7251 3.4624 12.8754 5.1008 12.8754 6.7616C12.8754 7.0112 12.917 7.2608 12.9361 7.3408C13.0383 7.36 13.2044 7.3824 13.3705 7.3824C14.8206 7.3824 16.6445 6.4096 17.6985 5.1008Z" fill="black"/>
</g>
<defs>
<clipPath id="clip0_5276_10033">
<rect width="26" height="32" fill="white"/>
</clipPath>
</defs>
</svg>
