<svg width="30" height="32" viewBox="0 0 30 32" fill="none" xmlns="http://www.w3.org/2000/svg">
<rect x="19.5233" y="10.8297" width="9.95558" height="17.1817" rx="1" transform="rotate(35.2673 19.5233 10.8297)" fill="#F5F5F5" stroke="black" stroke-width="2"/>
<rect x="8.8158" y="1.27694" width="14.8423" height="22.5322" rx="1" transform="rotate(19.5467 8.8158 1.27694)" fill="#F5F5F5" stroke="black" stroke-width="2"/>
<path d="M12.5491 11.5352C12.8385 11.2472 13.3044 11.4289 13.3386 11.8156L13.5699 14.0635L15.4844 15.0853C15.824 15.271 15.7982 15.783 15.4375 15.9642L13.4541 16.9372L13.0559 19.1569C12.9778 19.5526 12.4872 19.7041 12.2303 19.4174L10.7838 17.7802L8.61494 18.1336C8.23473 18.194 7.94958 17.7671 8.13849 17.4108L9.22935 15.437L8.30381 13.4311C8.13819 13.0629 8.44103 12.6493 8.82172 12.7194L10.9658 13.1388L12.5491 11.5352Z" fill="black"/>
</svg>
