<svg width="32" height="32" viewBox="0 0 32 32" fill="none" xmlns="http://www.w3.org/2000/svg">
<g clip-path="url(#clip0_5276_10037)">
<path d="M12.7388 28.7228C1.015 25.6993 0.0529897 25.4456 0.0635612 25.3927C0.0741328 25.3293 6.56505 0.0528079 6.57562 0.0422363C6.57562 0.0422363 12.2842 1.50111 19.2509 3.29827C26.2175 5.09542 31.9367 6.55429 31.9473 6.55429C31.9684 6.55429 31.9684 6.59658 31.9578 6.64944C31.9367 6.80801 25.4564 31.9471 25.4352 31.9682C25.4352 31.9788 19.716 30.5199 12.7388 28.7228ZM18.4897 16.703C18.828 15.3709 19.1134 14.2609 19.124 14.2292C19.1346 14.1764 18.8809 14.1024 16.6714 13.5315C15.3183 13.1826 14.1871 12.9078 14.1765 12.9183C14.1448 12.9501 12.8974 17.8447 12.908 17.8553C12.9291 17.8764 17.8449 19.145 17.8554 19.1344C17.8554 19.1238 18.1409 18.035 18.4897 16.703Z" fill="black"/>
</g>
<defs>
<clipPath id="clip0_5276_10037">
<rect width="32" height="32" fill="white"/>
</clipPath>
</defs>
</svg>
