<svg width="32" height="32" viewBox="0 0 32 32" fill="none" xmlns="http://www.w3.org/2000/svg">
<path d="M15.9999 0C7.16359 0 0 7.16357 0 16.0001C0 24.837 7.16359 32 15.9999 32C24.8372 32 32 24.837 32 16.0001C32 7.16414 24.8372 0.000764253 15.9997 0.000764253L15.9999 0ZM23.3374 23.0767C23.0508 23.5467 22.4356 23.6958 21.9656 23.4073C18.2089 21.1126 13.4798 20.5929 7.91044 21.8654C7.37375 21.9877 6.83879 21.6514 6.71651 21.1145C6.59366 20.5776 6.92859 20.0426 7.46661 19.9204C13.5614 18.5279 18.7894 19.1274 23.0068 21.7049C23.4768 21.9934 23.6259 22.6067 23.3374 23.0767ZM25.2957 18.7201C24.9346 19.307 24.1666 19.4924 23.58 19.1313C19.2793 16.4877 12.7234 15.7221 7.63646 17.2663C6.97673 17.4656 6.27994 17.0937 6.07971 16.4351C5.88101 15.7754 6.253 15.0799 6.91158 14.8793C12.7223 13.1162 19.946 13.9702 24.8849 17.0053C25.4715 17.3664 25.6568 18.1343 25.2957 18.7201ZM25.4638 14.1835C20.3072 11.1205 11.7993 10.8389 6.87585 12.3332C6.08525 12.573 5.24917 12.1267 5.00958 11.336C4.76999 10.545 5.21593 9.7095 6.00711 9.46914C11.6588 7.75338 21.0542 8.08488 26.9912 11.6094C27.7038 12.0315 27.9369 12.9499 27.5147 13.6601C27.0944 14.3713 26.1734 14.6057 25.4646 14.1835H25.4638Z" fill="#1ED760"/>
</svg>
