<svg width="32" height="32" viewBox="0 0 32 32" fill="none" xmlns="http://www.w3.org/2000/svg">
<g clip-path="url(#clip0_5276_10026)">
<path d="M0.888443 20.5302C2.83503 27.0207 8.85546 31.7538 15.9796 31.7538C24.6802 31.7538 31.7335 24.7005 31.7335 15.9999C31.7335 7.29939 24.6802 0.246094 15.9796 0.246094C7.63109 0.246094 0.799335 6.74111 0.259766 14.9533C1.28081 16.665 1.67712 17.724 0.887458 20.5302H0.888443Z" fill="#D9D9D9"/>
<path d="M0.888443 20.5302C2.83503 27.0207 8.85546 31.7538 15.9796 31.7538C24.6802 31.7538 31.7335 24.7005 31.7335 15.9999C31.7335 7.29939 24.6802 0.246094 15.9796 0.246094C7.63109 0.246094 0.799335 6.74111 0.259766 14.9533C1.28081 16.665 1.67712 17.724 0.887458 20.5302H0.888443Z" fill="url(#paint0_linear_5276_10026)"/>
<path d="M15.1679 12.0541L15.1694 12.1319L11.3146 17.7319C10.6903 17.7034 10.0641 17.8132 9.46942 18.0578C9.21053 18.163 8.96336 18.295 8.73194 18.4517L0.266709 14.9627C0.266709 14.9627 0.070771 18.1853 0.887017 20.5868L6.87151 23.0562C7.16689 24.3993 8.09243 25.5769 9.45219 26.143C10.5219 26.5875 11.7244 26.5892 12.7954 26.1478C13.8665 25.7064 14.7185 24.858 15.1644 23.7888C15.4023 23.2193 15.5171 22.6059 15.5012 21.9889L21.0116 18.048L21.147 18.0505C24.4479 18.0505 27.131 15.3595 27.131 12.0541C27.131 8.74879 24.4528 6.06768 21.147 6.06079C17.8475 6.06079 15.163 8.74879 15.163 12.0541H15.1679ZM14.2423 23.4018C13.5265 25.1249 11.5514 25.9357 9.83471 25.2204C9.07292 24.9003 8.45545 24.3112 8.09982 23.5653L10.0479 24.3727C10.3488 24.4979 10.6715 24.5627 10.9975 24.5632C11.3234 24.5637 11.6463 24.5 11.9476 24.3757C12.249 24.2514 12.5228 24.0689 12.7536 23.8387C12.9844 23.6085 13.1676 23.3351 13.2927 23.0341C13.546 22.4259 13.5475 21.742 13.2968 21.1326C13.0462 20.5233 12.564 20.0384 11.9561 19.7844L9.9376 18.9499C10.7145 18.6545 11.5977 18.6447 12.4238 18.9878C13.2607 19.3339 13.9007 19.9857 14.2433 20.8192C14.586 21.6527 14.584 22.5718 14.2384 23.4018M21.1524 16.0492C20.0946 16.0464 19.0811 15.6244 18.3339 14.8758C17.5867 14.1271 17.1666 13.1129 17.1657 12.0551C17.1668 10.9976 17.587 9.98354 18.3342 9.23513C19.0815 8.48671 20.0948 8.06489 21.1524 8.06202C22.2101 8.06463 23.2237 8.48634 23.9711 9.23478C24.7186 9.98322 25.1389 10.9974 25.1401 12.0551C25.1392 13.113 24.7189 14.1275 23.9715 14.8761C23.224 15.6248 22.2103 16.0466 21.1524 16.0492ZM18.165 12.0487C18.1644 11.254 18.4793 10.4915 19.0406 9.92886C19.6018 9.36621 20.3635 9.04942 21.1583 9.04811C22.81 9.04811 24.1535 10.3921 24.1535 12.0487C24.1539 12.8436 23.8386 13.6062 23.2769 14.1687C22.7152 14.7312 21.9532 15.0476 21.1583 15.0484C20.3636 15.0472 19.602 14.7306 19.0406 14.1681C18.4793 13.6057 18.1647 12.8434 18.165 12.0487Z" fill="white"/>
</g>
<defs>
<linearGradient id="paint0_linear_5276_10026" x1="16" y1="3.54271e-08" x2="16" y2="32" gradientUnits="userSpaceOnUse">
<stop stop-color="#111D2E"/>
<stop offset="1" stop-color="#1387B8"/>
</linearGradient>
<clipPath id="clip0_5276_10026">
<rect width="32" height="32" fill="white"/>
</clipPath>
</defs>
</svg>
