<svg width="32" height="32" viewBox="0 0 32 32" fill="none" xmlns="http://www.w3.org/2000/svg">
<g clip-path="url(#clip0_5276_10044)">
<path d="M14.4468 31.6036C12.0366 31.3727 9.59662 30.5073 7.50062 29.1396C5.74426 27.9942 5.3479 27.5225 5.3479 26.5825C5.3479 24.6942 7.42426 21.3862 10.977 17.616C12.9941 15.4742 15.8043 12.9651 16.1079 13.0327C16.6992 13.1647 21.4228 17.7724 23.1915 19.9418C25.9879 23.3709 27.273 26.1796 26.6199 27.4316C26.1235 28.3833 23.0428 30.2436 20.7799 30.9582C18.9144 31.5473 16.4646 31.7967 14.4468 31.6036ZM2.97553 24.6193C1.5159 22.38 0.778442 20.1756 0.422806 16.9873C0.304987 15.9345 0.346442 15.3327 0.689351 13.1713C1.1159 10.4804 2.64935 7.364 4.49299 5.44764C5.27771 4.63309 5.34753 4.61127 6.30462 4.93491C7.46462 5.32764 8.70462 6.18436 10.6283 7.924L11.7519 8.94L11.1374 9.69273C8.29081 13.1873 5.28644 18.1436 4.15553 21.2091C3.54099 22.8745 3.29371 24.5473 3.55917 25.2436C3.73735 25.7142 3.57371 25.5389 2.97371 24.6204L2.97553 24.6193ZM28.5948 25C28.7392 24.296 28.5566 23.0036 28.1294 21.6996C27.2039 18.876 24.1097 13.6233 21.2686 10.0516L20.3741 8.92727L21.3421 8.03891C22.6054 6.87891 23.4824 6.18436 24.4294 5.59418C25.1759 5.12873 26.2432 4.71673 26.7021 4.71673C26.9846 4.71673 27.9806 5.75309 28.7843 6.88036C30.0294 8.62582 30.945 10.7458 31.409 12.9495C31.709 14.3749 31.7341 17.4222 31.4574 18.844C31.2283 20.0105 30.7483 21.5225 30.2828 22.5484C29.9301 23.3167 29.061 24.8095 28.6792 25.2953C28.4828 25.5451 28.4828 25.5447 28.5919 25.0058L28.5948 25ZM14.705 4.18364C13.3937 3.51818 11.3712 2.80364 10.2541 2.61091C9.86281 2.54364 9.19481 2.50545 8.77044 2.52727C7.84826 2.57382 7.88935 2.52582 9.3679 1.82727C10.597 1.24654 11.6224 0.90509 13.0152 0.612727C14.5806 0.283636 17.5243 0.279999 19.065 0.604727C20.7286 0.955636 22.6883 1.68473 23.7923 2.36473L24.121 2.56618L23.3683 2.52836C21.8715 2.45273 19.6904 3.05745 17.3486 4.19636C16.6424 4.54036 16.0286 4.81454 15.9835 4.80727C15.9388 4.79854 15.3632 4.51818 14.7035 4.18364H14.705Z" fill="#107C10"/>
</g>
<defs>
<clipPath id="clip0_5276_10044">
<rect width="32" height="32" fill="white"/>
</clipPath>
</defs>
</svg>
