<svg width="24" height="21" viewBox="0 0 24 21" fill="none" xmlns="http://www.w3.org/2000/svg">
<g clip-path="url(#clip0_9_2503)">
<path d="M23.7875 15.2701C23.3167 15.8525 22.1708 16.2668 22.1708 16.2668L13.625 19.2855V17.0584L19.9125 14.8518C20.625 14.6016 20.7375 14.2447 20.1542 14.0561C19.575 13.8674 18.525 13.9207 17.8125 14.175L13.625 15.6311V13.3178C14.5917 12.9979 15.5875 12.76 16.7792 12.6287C18.4833 12.4441 20.5667 12.6533 22.2042 13.2645C24.0458 13.8387 24.2542 14.6877 23.7875 15.2701ZM14.4375 11.4762V5.775C14.4375 5.10645 14.3125 4.49121 13.675 4.31484C13.1875 4.15898 12.8833 4.60606 12.8833 5.27461V19.5439L8.975 18.3217V1.3125C10.6375 1.61602 13.0583 2.33379 14.3583 2.76445C17.6708 3.88418 18.7917 5.27871 18.7917 8.41641C18.7917 11.4721 16.875 12.6328 14.4375 11.4762ZM1.8 16.8246C-0.09167 16.2996 -0.408337 15.2045 0.454163 14.577C1.25 13.9945 2.60833 13.5557 2.60833 13.5557L8.2125 11.5951V13.8305L4.17916 15.2496C3.46666 15.4998 3.35833 15.8566 3.9375 16.0453C4.51666 16.234 5.56666 16.1807 6.27916 15.9264L8.2125 15.2332V17.2348C6.0625 17.6162 3.9875 17.5342 1.8 16.8246Z" fill="white"/>
</g>
<defs>
<clipPath id="clip0_9_2503">
<rect width="24" height="21" fill="white"/>
</clipPath>
</defs>
</svg>
