<svg width="20" height="20" viewBox="0 0 20 20" fill="none" xmlns="http://www.w3.org/2000/svg">
<path d="M9.00278 19.9589C7.46209 19.8114 5.90234 19.2585 4.56249 18.3847C3.43975 17.6529 3.18638 17.3516 3.18638 16.751C3.18638 15.5446 4.51368 13.4311 6.78473 11.0224C8.07414 9.65401 9.87053 8.05098 10.0646 8.0942C10.4426 8.17853 13.4621 11.1223 14.5928 12.5083C16.3803 14.6991 17.2018 16.4936 16.7843 17.2935C16.467 17.9015 14.4977 19.09 13.0512 19.5465C11.8587 19.9229 10.2927 20.0823 9.00278 19.9589ZM1.66986 15.4967C0.7368 14.0661 0.265388 12.6577 0.0380504 10.6207C-0.0372639 9.94813 -0.0107645 9.56364 0.208438 8.18271C0.481103 6.46352 1.46135 4.47252 2.63988 3.24818C3.14151 2.72777 3.18614 2.71383 3.79796 2.9206C4.53948 3.17151 5.33214 3.71886 6.56181 4.83029L7.28009 5.4794L6.88724 5.96031C5.06761 8.19293 3.14709 11.3595 2.42417 13.318C2.03132 14.382 1.87326 15.4507 2.04295 15.8956C2.15685 16.1962 2.05224 16.0842 1.6687 15.4974L1.66986 15.4967ZM18.0468 15.7399C18.1391 15.2902 18.0224 14.4645 17.7492 13.6314C17.1577 11.8274 15.1797 8.47149 13.3636 6.18961L12.7917 5.47127L13.4105 4.90371C14.2181 4.1626 14.7787 3.71886 15.3841 3.3418C15.8613 3.04443 16.5435 2.78121 16.8369 2.78121C17.0175 2.78121 17.6542 3.44333 18.1679 4.16353C18.9638 5.27868 19.5491 6.63312 19.8457 8.04099C20.0375 8.9517 20.0535 10.8986 19.8766 11.8069C19.7302 12.5522 19.4234 13.5182 19.1258 14.1736C18.9003 14.6645 18.3448 15.6182 18.1007 15.9286C17.9752 16.0882 17.9752 16.088 18.0449 15.7437L18.0468 15.7399ZM9.16783 2.44062C8.3296 2.01547 7.03671 1.55896 6.32262 1.43583C6.0725 1.39285 5.64548 1.36845 5.37421 1.38239C4.78472 1.41213 4.81098 1.38146 5.75613 0.93517C6.54182 0.56415 7.19733 0.345999 8.08762 0.159212C9.08833 -0.0510405 10.97 -0.0533637 11.9549 0.1541C13.0184 0.378292 14.2711 0.844099 14.9768 1.27854L15.1869 1.40725L14.7058 1.38309C13.749 1.33476 12.3547 1.72112 10.8577 2.44875C10.4063 2.66853 10.014 2.8437 9.98513 2.83905C9.95654 2.83348 9.58856 2.65436 9.1669 2.44062H9.16783Z" fill="white"/>
</svg>
